/* XPM */
static char * block_xpm[] = {
"24 24 3 1",
" 	c #6E530B",
".	c #A3683A",
"+	c #000000",
"    ........++    ....  ",
"  ..........++  ......  ",
"....        ++..      ++",
"..          ++..      ++",
"..          ++..      ++",
"..          ++..      ++",
"..          ++++      ++",
"..          ++++++  ++++",
"..          ++  ++++++  ",
"..          ++    ++..++",
"..          ++........++",
"..          ++..      ++",
"..        ++++..      ++",
"..        ++....      ++",
"..        ++..        ++",
"++        ++..        ++",
"++++      ++..        ++",
"..++++  ++++..        ++",
"....++++++..          ++",
"..  ....++..          ++",
"..    ..++..          ++",
"....    ++..          ++",
"++++    ++....      ++++",
"  ++++++++..++++++++++  "};
