/* XPM */
static char * coin_xpm[] = {
"16 16 16 1",
" 	c #464063",
".	c #6E530B",
"+	c #A3683A",
"@	c #000000",
"#	c #FFFFFF",
"$	c #9290FF",
"%	c #4F449C",
"&	c #ACEA88",
"*	c #5CAD5F",
"=	c #808080",
"-	c #545454",
";	c #CBD689",
">	c #924A40",
",	c #8D47B3",
"'	c #6AC1C8",
")	c #CC7F76",
"$$$$$$$$$$$$$$$$",
"$$$$$$;;;;$$$$$$",
"$$$$$;;;;;;$$$$$",
"$$$$;;;;;;;;$$$$",
"$$$$;;;$$;;;$$$$",
"$$$;;;$;;$;;;$$$",
"$$$;;;$;;$;;;$$$",
"$$$;;;$;;$;;;$$$",
"$$$;;;$;;$;;;$$$",
"$$$;;;$;;$;;;$$$",
"$$$;;;$;;$;;;$$$",
"$$$$;;;$$;;;$$$$",
"$$$$;;;;;;;;$$$$",
"$$$$$;;;;;;$$$$$",
"$$$$$$;;;;$$$$$$",
"$$$$$$$$$$$$$$$$"};
