/* XPM */
static char * startin_xpm[] = {
"24 16 3 1",
" 	c #A3683A",
".	c #000000",
"+	c #6E530B",
"        ........      ..",
"  ++++............++++..",
"  ++................++..",
"........................",
"  ....................  ",
"++....................++",
"........................",
"........................",
"........................",
"........................",
"........................",
"........................",
"........................",
"........................",
"........................",
"........................"};
