/* XPM */
static char * exitTube_xpm[] = {
"15 16 4 1",
" 	c #8CD600",
".	c #000000",
"+	c #109400",
"@	c #9494FF",
"             ..",
"+++++++++++++..",
"+++++++++++++..",
"+++++++++++++..",
"+++++++++++++..",
"+++++++++++++..",
"+++++++++++++..",
"+++++++++++++..",
"+++++++++++++..",
"+++++++++++++..",
"+ + + + + + +..",
" + + + + + + ..",
"+ + + + + + +..",
"             ..",
"             ..",
"..............@"};
