/* XPM */
static char * marioPlayer_xpm[] = {
"22 20 4 1",
" 	c #8A7FCD",
".	c #CC7F76",
"+	c #924A40",
"@	c #6E530B",
"                  ....",
"        ++++    ......",
"      ++++++    ......",
"    ++++++++++++@@@@@@",
"    @@@@....    @@@@@@",
"  @@..@@..  ....@@@@@@",
"  @@..............@@@@",
"  @@@@....@@@@  @@@@@@",
"  @@@@....  @@@@@@@@@@",
"      ........  @@@@@@",
"    @@++@@@@++@@@@@@  ",
"  @@@@@@++@@@@++@@@@  ",
"..@@@@@@++@@@@++@@    ",
"....@@@@@@++@@@@++    ",
"  ..  ++@@++++++++  @@",
"    @@  ++++++++@@@@@@",
"  @@@@@@  ++++++@@@@@@",
"@@@@@@@@++++++++@@@@@@",
"@@  @@++++++++        ",
"        ++++          "};
