/* XPM */
static char * sky_xpm[] = {
"90 81 3 1",
" 	c #8A7FCD",
".	c #464063",
"+	c #FFFFFF",
"                                                                                         .",
"                                                                                         .",
"                                      +++++           +++++           +++++              .",
"                                    ++++  +++       ++++  +++       ++++  +++            .",
"                                  ++++++++ +++    ++++++++ +++    ++++++++ +++           .",
"                                 +++  +++++ +++  +++  +++++ +++  +++  +++++ +++    +     .",
"                                +++ +++++++++++++++ +++++++++++++++ +++++++++++++ ++   + .",
"                                ++++++++++++++++++++++++++++++++++++++++++++++++++++ +++ .",
"                               ++++++++++++++++++++++++++++++++++++++++++++++++++++++++++.",
"                             ++++++++++++++++++++++++++++++++++++++++++++++++++++++++++++.",
"                           ++++++++++++++++++++++++++++++++++++++++++++++++++++++++++++++.",
"                         ++++++++++++++++++++++++++++++++++++++++++++++++++++++++++++++++.",
"                         +++++++++++++++++++++++++++++++++++++++++++++++++++++++++++++++ .",
"                          ++++++++++++++++++++++++++++++++++++++++++++++++++++++++++++++ .",
"                           ++++     +++++++++++++   +++++++++++++   +++++++++++++ +++++++.",
"                            ++++++     +         +     +         +     +          +++++++.",
"                              +++++++ +++++    ++++++ +++++    ++++++ +++++    ++++++++  .",
"                                 ++++++   +++++++++++++   +++++++++++++   +++++++        .",
"                                                                                         .",
"                                                                                         .",
"                                                                                         .",
"                                                                                         .",
"                                                                                         .",
"                                                                                         .",
"                                                                                         .",
"                                                                                         .",
"                                                                                         .",
"                                                                                         .",
"                                                                                         .",
"                                                                                         .",
"                                                                                         .",
"                                                                                         .",
"                                                                                         .",
"                                                                                         .",
"                                                                                         .",
"                                                                                         .",
"                                                                                         .",
"                                                                                         .",
"                                                                                         .",
"                                                                                         .",
"                                                                                         .",
"                                                                                         .",
"                                                                                         .",
"                                                                                         .",
"                                                                                         .",
"                                                                                         .",
"                                                                                         .",
"                                                                                         .",
"                                                                                         .",
"                                                                                         .",
"                                                                                         .",
"                                                                                         .",
"                                                                                         .",
"                                                                                         .",
"                                                                                         .",
"                                                                                         .",
"                                                                                         .",
"                                                                                         .",
"                                                                                         .",
"                                                                                         .",
"                                                                                         .",
"                                                                                         .",
"                                                                                         .",
"                                                                                         .",
"                                                                                         .",
"                                                                                         .",
"                                                                                         .",
"                                                                                         .",
"                                                                                         .",
"                                                                                         .",
"                                                                                         .",
"                                                                                         .",
"                                                                                         .",
"                                                                                         .",
"                                                                                         .",
"                                                                                         .",
"                                                                                         .",
"                                                                                         .",
"                                                                                         .",
"                                                                                         .",
"                                                                                         ."};
