/* XPM */
static char * wallL_xpm[] = {
"25 18 4 1",
" 	c #464063",
".	c #000000",
"+	c #A3683A",
"@	c #6E530B",
"                         ",
"............++++++++++.. ",
"............++@@@@@@@@.. ",
"............++@@@@@@@@.. ",
"........................ ",
"............++++..++++++ ",
"............@@@@..++@@@@ ",
"............@@@@..++@@@@ ",
"........................ ",
"............++++++++++.. ",
"............++@@@@@@@@.. ",
"............++@@@@@@@@.. ",
"........................ ",
"............++++..++++++ ",
"............@@@@..++@@@@ ",
"............@@@@..++@@@@ ",
"........................ ",
"                         "};
