/* XPM */
static char * wallR_xpm[] = {
"25 17 4 1",
" 	c #464063",
".	c #A3683A",
"+	c #000000",
"@	c #6E530B",
" ..........++++++++++++++",
" ..@@@@@@@@++++++++++++++",
" ..@@@@@@@@++++++++++++++",
" ++++++++++++++++++++++++",
" ....++......++++++++++++",
" @@@@++..@@@@++++++++++++",
" @@@@++..@@@@++++++++++++",
" ++++++++++++++++++++++++",
" ..........++++++++++++++",
" ..@@@@@@@@++++++++++++++",
" ..@@@@@@@@++++++++++++++",
" ++++++++++++++++++++++++",
" ....++......++++++++++++",
" @@@@++..@@@@++++++++++++",
" @@@@++..@@@@++++++++++++",
" ++++++++++++++++++++++++",
"                         "};
